<svg xmlns="http://www.w3.org/2000/svg" width="110" height="36" fill="none"><path fill="#232D22" d="m49.992 26-6.456-7.464V26H40.8V9.32h2.736v7.608l6.48-7.608h3.432L46.2 17.672 53.568 26h-3.576Zm8.7315-11.304c.4-.672.928-1.192 1.584-1.56.672-.384 1.464-.576 2.376-.576v2.832h-.696c-1.072 0-1.888.272-2.448.816-.544.544-.816 1.488-.816 2.832V26h-2.736V12.776h2.736v1.92Zm18.5949 4.368c0 .496-.032.944-.096 1.344h-10.104c.08 1.056.472 1.904 1.176 2.544.704.64 1.568.96 2.592.96 1.472 0 2.512-.616 3.12-1.848h2.952c-.4 1.216-1.128 2.216-2.184 3-1.04.768-2.336 1.152-3.888 1.152-1.264 0-2.4-.28-3.408-.84-.992-.576-1.776-1.376-2.352-2.4-.56-1.04-.84-2.24-.84-3.6 0-1.36.272-2.552.816-3.576.56-1.04 1.336-1.84 2.328-2.4 1.008-.56 2.16-.84 3.456-.84 1.248 0 2.36.272 3.336.816.976.544 1.736 1.312 2.28 2.304.544.976.816 2.104.816 3.384Zm-2.856-.864c-.016-1.008-.376-1.816-1.08-2.424-.704-.608-1.576-.912-2.616-.912-.944 0-1.752.304-2.424.912-.672.592-1.072 1.4-1.2 2.424h7.32Zm17.6685.864c0 .496-.032.944-.096 1.344h-10.104c.08 1.056.472 1.904 1.176 2.544.704.64 1.568.96 2.592.96 1.472 0 2.512-.616 3.12-1.848h2.952c-.4 1.216-1.128 2.216-2.184 3-1.04.768-2.336 1.152-3.888 1.152-1.264 0-2.4-.28-3.408-.84-.992-.576-1.776-1.376-2.352-2.4-.56-1.04-.84-2.24-.84-3.6 0-1.36.272-2.552.816-3.576.56-1.04 1.336-1.84 2.328-2.4 1.008-.56 2.16-.84 3.456-.84 1.248 0 2.36.272 3.336.816.976.544 1.736 1.312 2.28 2.304.544.976.816 2.104.816 3.384Zm-2.856-.864c-.016-1.008-.376-1.816-1.08-2.424-.704-.608-1.576-.912-2.616-.912-.944 0-1.752.304-2.424.912-.672.592-1.072 1.4-1.2 2.424h7.32Zm4.6365 1.128c0-1.328.272-2.504.816-3.528.56-1.024 1.312-1.816 2.256-2.376.96-.576 2.024-.864 3.1916-.864.864 0 1.712.192 2.544.576.848.368 1.52.864 2.016 1.488V8.24h2.76V26h-2.76v-1.992c-.448.64-1.072 1.168-1.872 1.584-.784.416-1.688.624-2.712.624-1.1516 0-2.2076-.288-3.1676-.864-.944-.592-1.696-1.408-2.256-2.448-.544-1.056-.816-2.248-.816-3.576Zm10.8236.048c0-.912-.192-1.704-.576-2.376-.368-.672-.856-1.184-1.464-1.536-.608-.352-1.264-.528-1.968-.528s-1.3596.176-1.9676.528c-.608.336-1.104.84-1.488 1.512-.368.656-.552 1.44-.552 2.352 0 .912.184 1.712.552 2.4.384.688.88 1.216 1.488 1.584.624.352 1.2796.528 1.9676.528.704 0 1.36-.176 1.968-.528.608-.352 1.096-.864 1.464-1.536.384-.688.576-1.488.576-2.4Z"/><rect width="30" height="30" y="3" fill="#13AA52" rx="6"/><path fill="#fff" d="M9.70947 24.6781c-.55228 0-1-.4477-1-1V12.2258c0-.5523.44772-1 1-1h1.05163c.5523 0 1 .4477 1 1v11.4523c0 .5523-.4477 1-1 1H9.70947Zm3.03973-6.2224c-.0792-.214-.0828-.4487-.0102-.6651l1.9747-5.883c.1368-.4073.5184-.6818.9481-.6818h.9028c.6822 0 1.1642.6682.9489 1.3156l-1.7469 5.2535c-.0711.2137-.0679.4452.009.657l1.7746 4.8848c.2369.6521-.2461 1.3414-.9399 1.3414h-.8632c-.4185 0-.7927-.2606-.9379-.653l-2.06-5.5694ZM19.0114 23.3329c0-.5765.2814-1.0057.8441-1.2876.2453-.1153.505-.1729.7792-.1729.6492 0 1.1254.2498 1.4284.7495.1298.2177.1948.4548.1948.711 0 .5893-.2886 1.0121-.8658 1.2684-.2452.1153-.4977.1729-.7574.1729-.6638 0-1.1399-.2562-1.4285-.7687-.1298-.2178-.1948-.442-.1948-.6726Z"/></svg>